# xmcd CD database file
#
# Track frame offsets:
#	180
#	19572
#	47239
#	72189
#	86559
#	100225
#	117200
#	135531
#	150549
#
# Disc length: 2184 seconds
#
# Revision: 0
# Processed by: cddbd v1.4PL0 Copyright (c) Steve Scherf et al.
# Submitted via: CDex 1.50
#
DISCID=6b088609
DTITLE=Miche Fambro - The Chapel Session
DYEAR=1994
DGENRE=Blues
TTITLE0=The Big Unfair
TTITLE1=Keisha
TTITLE2=Plant Parallels
TTITLE3=Tracy's House
TTITLE4=Einstein
TTITLE5=Smile at the Foot of the Bed
TTITLE6=Infidel's Cry
TTITLE7=Night and Day
TTITLE8=Protestant Son
EXTD=YEAR: 1994
EXTT0=
EXTT1=
EXTT2=
EXTT3=
EXTT4=
EXTT5=
EXTT6=
EXTT7=
EXTT8=
PLAYORDER=
